<svg xmlns="http://www.w3.org/2000/svg" width="169.667" height="82.333"><path fill="#568010" d="M58.352 37.845c7.96 2.819 12.707 9.989 15.37 14.135.396.617.74 1.187 1.061 1.734-.657-4.975-.176-11.64 3.72-19.455-6.489-6.431-15.951-8.96-23.281-8.429-8.842.642-12.023 1.638-21.628 5.146 4.085 2.116 8.287 6.95 10.995 13.503 2.336 5.652 5.911 14.097 7.902 17.308 3.097 4.993 9.116 10.547 14.813 10.373 6.73-.206 9.718-3.928 8.477-9.937-1.518-7.336-9.573-19.582-17.429-24.378z"/><path fill="#005F34" d="M123.75 62.712c-4.234 6.827-12.461 14.417-20.247 14.18-9.2-.28-13.284-5.369-11.587-13.582 2.072-10.028 13.081-26.767 23.82-33.321-10.881 3.854-17.369 13.652-21.009 19.32-3.64 5.669-4.716 9.039-6.343 12.112-1.29 2.438-5.913 5.031-8.678-.632-2.765-5.665-4.742-16.257 3.566-29.585 8.31-13.328 24.657-18.515 36.743-17.638 12.087.877 16.435 2.238 29.563 7.034-5.583 2.891-11.326 9.5-15.028 18.456-3.194 7.725-8.079 19.268-10.8 23.656zM18.717 43.325c10.942 13.012 19.096 20.607 32.872 28.646 2.222 1.296 3.33.129 2.822-1.179-2.643-6.827-10.108-17.583-21.584-25.929C18.271 34.277 4.404 24.504 3.08 7.566c2.117 25.671 9.063 36.457 15.681 44.925 5.573 7.133 15.991 16.598 29.03 20.321 1.053.3 1.492-.394.721-.808-14.043-7.56-21.943-18.056-29.795-28.679z"/><circle fill="#005F34" cx="84.835" cy="71.739" r="3.765"/><path fill="#568010" d="M134.095 48.215c-3.315 7.708-5.72 12.743-7.3 15.29a37.53 37.53 0 0 1-2.163 3.098c7.673-4.586 14.317-9.978 22.4-17.499-7.566 7.98-15.166 15.862-26.069 21.623a34.88 34.88 0 0 1-4.506 3.751c12.586-2.53 23.315-10.182 29.416-16.281 7.599-7.6 15.808-17.458 21.038-42.68-3.288 16.207-17.546 24.227-32.816 32.698z"/></svg>